HIERARCHY
ROOT hip
{
  OFFSET 85.6329 78.6648 148.73
  CHANNELS 6 Xposition Yposition Zposition Zrotation Xrotation Yrotation
  JOINT abdomen
  {
    OFFSET 0 20.6881 -0.73152
    CHANNELS 3 Zrotation Xrotation Yrotation
    JOINT chest
    {
      OFFSET 0 11.7043 -0.48768
      CHANNELS 3 Zrotation Xrotation Yrotation
      JOINT neck
      {
        OFFSET 0 22.1894 -2.19456
        CHANNELS 3 Zrotation Xrotation Yrotation
        JOINT head
        {
          OFFSET -0.24384 7.07133 1.2192
          CHANNELS 3 Zrotation Xrotation Yrotation
          JOINT leftEye
          {
            OFFSET 4.14528 8.04674 8.04672
            CHANNELS 3 Zrotation Xrotation Yrotation
            End Site
            {
              OFFSET 1 0 0
            }
          }
          JOINT rightEye
          {
            OFFSET -3.6576 8.04674 8.04672
            CHANNELS 3 Zrotation Xrotation Yrotation
            End Site
            {
              OFFSET 1 0 0
            }
          }
        }
      }
      JOINT rCollar
      {
        OFFSET -2.68224 19.2634 -4.8768
        CHANNELS 3 Zrotation Xrotation Yrotation
        JOINT rShldr
        {
          OFFSET -8.77824 -1.95073 1.46304
          CHANNELS 3 Zrotation Xrotation Yrotation
          JOINT rForeArm
          {
            OFFSET -28.1742 -1.7115 0.48768
            CHANNELS 3 Zrotation Xrotation Yrotation
            JOINT rHand
            {
              OFFSET -22.5879 0.773209 7.07136
              CHANNELS 3 Zrotation Xrotation Yrotation
              JOINT rThumb1
              {
                OFFSET -1.2192 -0.487915 3.41376
                CHANNELS 3 Zrotation Xrotation Yrotation
                JOINT rThumb2
                {
                  OFFSET -3.37035 -0.52449 3.41376
                  CHANNELS 3 Zrotation Xrotation Yrotation
                  End Site
                  {
                    OFFSET -1.78271 -1.18214 1.43049
                  }
                }
              }
              JOINT rIndex1
              {
                OFFSET -7.75947 0.938293 5.60832
                CHANNELS 3 Zrotation Xrotation Yrotation
                JOINT rIndex2
                {
                  OFFSET -2.54057 -0.884171 1.56538
                  CHANNELS 3 Zrotation Xrotation Yrotation
                  End Site
                  {
                    OFFSET -1.62519 -0.234802 1.16502
                  }
                }
              }
              JOINT rMid1
              {
                OFFSET -8.24714 1.18213 3.41376
                CHANNELS 3 Zrotation Xrotation Yrotation
                JOINT rMid2
                {
                  OFFSET -3.10165 -0.590103 1.0647
                  CHANNELS 3 Zrotation Xrotation Yrotation
                  End Site
                  {
                    OFFSET -2.48547 -0.328903 0.83742
                  }
                }
              }
              JOINT rRing1
              {
                OFFSET -8.82822 0.546677 1.51678
                CHANNELS 3 Zrotation Xrotation Yrotation
                JOINT rRing2
                {
                  OFFSET -2.60934 -0.819778 -0.0198488
                  CHANNELS 3 Zrotation Xrotation Yrotation
                  End Site
                  {
                    OFFSET -2.33842 -0.294052 0.168128
                  }
                }
              }
              JOINT rPinky1
              {
                OFFSET -8.27202 -0.0477905 -0.4584
                CHANNELS 3 Zrotation Xrotation Yrotation
                JOINT rPinky2
                {
                  OFFSET -1.82734 -0.647385 -0.700984
                  CHANNELS 3 Zrotation Xrotation Yrotation
                  End Site
                  {
                    OFFSET -1.69225 -0.51767 -0.607171
                  }
                }
              }
            }
          }
        }
      }
      JOINT lCollar
      {
        OFFSET 2.68224 19.2634 -4.8768
        CHANNELS 3 Zrotation Xrotation Yrotation
        JOINT lShldr
        {
          OFFSET 8.77824 -1.95073 1.46304
          CHANNELS 3 Zrotation Xrotation Yrotation
          JOINT lForeArm
          {
            OFFSET 28.1742 -1.7115 0.48768
            CHANNELS 3 Zrotation Xrotation Yrotation
            JOINT lHand
            {
              OFFSET 22.5879 0.773209 7.07136
              CHANNELS 3 Zrotation Xrotation Yrotation
              JOINT lThumb1
              {
                OFFSET 1.2192 -0.487915 3.41376
                CHANNELS 3 Zrotation Xrotation Yrotation
                JOINT lThumb2
                {
                  OFFSET 3.37035 -0.52449 3.41376
                  CHANNELS 3 Zrotation Xrotation Yrotation
                  End Site
                  {
                    OFFSET 1.78271 -1.18214 1.43049
                  }
                }
              }
              JOINT lIndex1
              {
                OFFSET 7.75947 0.938293 5.60832
                CHANNELS 3 Zrotation Xrotation Yrotation
                JOINT lIndex2
                {
                  OFFSET 2.54057 -0.884171 1.56538
                  CHANNELS 3 Zrotation Xrotation Yrotation
                  End Site
                  {
                    OFFSET 1.62519 -0.234802 1.16502
                  }
                }
              }
              JOINT lMid1
              {
                OFFSET 8.24714 1.18213 3.41376
                CHANNELS 3 Zrotation Xrotation Yrotation
                JOINT lMid2
                {
                  OFFSET 3.10165 -0.590103 1.0647
                  CHANNELS 3 Zrotation Xrotation Yrotation
                  End Site
                  {
                    OFFSET 2.48547 -0.328903 0.83742
                  }
                }
              }
              JOINT lRing1
              {
                OFFSET 8.82822 0.546677 1.51678
                CHANNELS 3 Zrotation Xrotation Yrotation
                JOINT lRing2
                {
                  OFFSET 2.60934 -0.819778 -0.0198488
                  CHANNELS 3 Zrotation Xrotation Yrotation
                  End Site
                  {
                    OFFSET 2.33842 -0.294052 0.168128
                  }
                }
              }
              JOINT lPinky1
              {
                OFFSET 8.27202 -0.0477905 -0.4584
                CHANNELS 3 Zrotation Xrotation Yrotation
                JOINT lPinky2
                {
                  OFFSET 1.82734 -0.647385 -0.700984
                  CHANNELS 3 Zrotation Xrotation Yrotation
                  End Site
                  {
                    OFFSET 1.69225 -0.51767 -0.607171
                  }
                }
              }
            }
          }
        }
      }
    }
  }
  JOINT rButtock
  {
    OFFSET -8.77824 4.35084 1.2192
    CHANNELS 3 Zrotation Xrotation Yrotation
    JOINT rThigh
    {
      OFFSET 0 -1.70687 -2.19456
      CHANNELS 3 Zrotation Xrotation Yrotation
      JOINT rShin
      {
        OFFSET 0 -36.8199 0.73152
        CHANNELS 3 Zrotation Xrotation Yrotation
        JOINT rFoot
        {
          OFFSET 0.73152 -45.1104 -5.12064
          CHANNELS 3 Zrotation Xrotation Yrotation
          End Site
          {
            OFFSET -1.1221 -3.69964 12.103
          }
        }
      }
    }
  }
  JOINT lButtock
  {
    OFFSET 8.77824 4.35084 1.2192
    CHANNELS 3 Zrotation Xrotation Yrotation
    JOINT lThigh
    {
      OFFSET 0 -1.70687 -2.19456
      CHANNELS 3 Zrotation Xrotation Yrotation
      JOINT lShin
      {
        OFFSET 0 -36.8199 0.73152
        CHANNELS 3 Zrotation Xrotation Yrotation
        JOINT lFoot
        {
          OFFSET -0.73152 -45.1104 -5.12064
          CHANNELS 3 Zrotation Xrotation Yrotation
          End Site
          {
            OFFSET 1.1221 -3.69964 12.103
          }
        }
      }
    }
  }
}
MOTION
Frames:	5
Frame Time:	0.00833333
89.0797 85.3029 -91.7257 -0.763365 -9.37907e-005 0.0138765 1.00452 -0.00484022 0.0278703 0.277316 -0.00537899 0.0480463 -1.65279e-014 -7.95139e-016 2.36057e-016 -4.97303e-014 3.18055e-015 6.67792e-016 -0 0 0 -0 0 0 -8.25109e-015 1.16475e-017 2.98177e-016 -1.7263e-013 2.79541e-016 2.5842e-015 -2.99718e-012 8.99898e-013 7.95139e-014 -3.42431e-011 -8.57333e-013 3.94389e-013 -8.07877e-011 9.01928e-014 1.06231e-012 -1.39533e-010 1.62208e-013 1.82564e-012 -8.07841e-011 9.10434e-014 1.04958e-012 7.73091 5.47488 0.417314 -8.07882e-011 9.01488e-014 1.05912e-012 2.90554 0.965183 0.102902 -8.07831e-011 8.98507e-014 1.05992e-012 10.2786 0.731801 0.0259123 -8.07958e-011 9.34288e-014 1.07185e-012 2.22167 -0.733487 -0.20892 -8.34796e-015 1.04828e-017 -9.93923e-017 -1.7614e-013 3.72721e-016 5.96354e-016 -2.98833e-012 -8.85983e-013 5.08889e-014 -3.42499e-011 9.37593e-013 4.38917e-013 -8.0777e-011 1.06074e-013 1.04958e-012 -1.39493e-010 1.81292e-013 1.82246e-012 -8.07797e-011 1.06946e-013 1.06231e-012 -7.73091 5.47488 -0.417314 -8.07764e-011 1.05753e-013 1.05276e-012 -2.90554 0.965183 -0.102902 -8.07812e-011 1.05952e-013 1.05594e-012 -10.2786 0.731801 -0.0259123 -8.07672e-011 1.10127e-013 1.0464e-012 -2.22167 -0.733487 0.20892 -2.03217e-016 0 -3.88251e-019 1.24394 -5.50664 -0.110026 0.000306124 4.41989 0.0270048 -0.491017 1.08592 0.0779223 2.03217e-016 0 3.88251e-019 0.289315 -1.91903 0.012257 0.00911464 -2.07858 0.07519 0.471739 3.99667 -0.134323 
90.9751 82.7068 -94.7835 1.00292 2.70234 1.49486 0.154582 -0.0761248 -0.133701 0.0286365 -0.124238 0.00432693 7.08679e-014 4.375 3.37285e-014 -2.84964e-011 -8.75 -8.70641e-011 -0 0 0 -0 0 0 3.73925e-014 -9.61777e-014 1.31835e-014 -2.1875 1.29107e-009 7.13234e-011 -3.70465e-013 -1.20294e-010 -6.21217e-012 2.0211e-010 -5.87343e-010 -8.59299e-011 4.38544e-010 -1.5389e-009 -2.01267e-010 7.57675e-010 -2.65894e-009 -3.4808e-010 4.38548e-010 -1.5389e-009 -2.01279e-010 7.73091 5.47488 0.417314 4.38544e-010 -1.5389e-009 -2.01271e-010 2.90554 0.965183 0.102902 4.38549e-010 -1.5389e-009 -2.01269e-010 10.2786 0.731801 0.0259123 4.38537e-010 -1.53889e-009 -2.01258e-010 2.22167 -0.733487 -0.20892 3.73274e-014 -9.618e-014 1.28402e-014 2.1875 1.29107e-009 -7.13211e-011 2.84626e-011 -1.07287e-010 7.33597e-012 1.19331e-010 -5.7116e-010 9.81327e-011 3.2009e-010 -1.4756e-009 2.28599e-010 5.52591e-010 -2.54963e-009 3.94727e-010 3.20088e-010 -1.4756e-009 2.28612e-010 -7.73091 5.47488 -0.417314 3.20091e-010 -1.4756e-009 2.28602e-010 -2.90554 0.965183 -0.102902 3.20086e-010 -1.4756e-009 2.28604e-010 -10.2786 0.731801 -0.0259123 3.20098e-010 -1.4756e-009 2.28595e-010 -2.22167 -0.733487 0.20892 -2.03217e-016 0 -3.88251e-019 -0.398862 -21.854 -1.41696 0.101192 21.2143 0.306083 -0.701445 -1.78416 -2.16693 2.03217e-016 0 3.88251e-019 -0.814699 -0.223417 -1.78819 -0.129214 7.90591 -0.223401 1.16221 6.2975 -2.8671 
90.9509 83.0358 -93.9688 2.72161 5.55711 3.07523 -0.736047 -0.150352 -0.306807 -0.232294 -0.24821 -0.0414987 1.57353e-013 9 7.75144e-014 -8.884e-011 -18 -1.86129e-010 -0 0 0 -0 0 0 8.60326e-014 -2.02952e-013 3.04513e-014 -4.5 2.65591e-009 1.4672e-010 1.54034e-012 -2.55248e-010 -1.20086e-011 4.54819e-010 -1.2418e-009 -1.69685e-010 9.91875e-010 -3.25564e-009 -3.97101e-010 1.71362e-009 -5.62517e-009 -6.86821e-010 9.91879e-010 -3.25564e-009 -3.97112e-010 7.73091 5.47488 0.417314 9.91875e-010 -3.25565e-009 -3.97104e-010 2.90554 0.965183 0.102902 9.9188e-010 -3.25565e-009 -3.97101e-010 10.2786 0.731801 0.0259123 9.91868e-010 -3.25564e-009 -3.97091e-010 2.22167 -0.733487 -0.20892 8.60026e-014 -2.02956e-013 3.01656e-014 4.5 2.65591e-009 -1.46718e-010 6.26279e-011 -2.25751e-010 1.6689e-011 2.80807e-010 -1.2068e-009 2.19737e-010 7.43906e-010 -3.11579e-009 5.12498e-010 1.28428e-009 -5.38364e-009 8.84944e-010 7.43903e-010 -3.11579e-009 5.12511e-010 -7.73091 5.47488 -0.417314 7.43906e-010 -3.11579e-009 5.12501e-010 -2.90554 0.965183 -0.102902 7.43902e-010 -3.11579e-009 5.12502e-010 -10.2786 0.731801 -0.0259123 7.43911e-010 -3.11579e-009 5.12493e-010 -2.22167 -0.733487 0.20892 -2.03217e-016 0 -3.88251e-019 -3.18545 -39.1541 -3.34837 -0.020953 38.9818 0.716959 -1.16407 -4.77404 -4.54627 2.03217e-016 0 3.88251e-019 -1.86806 1.61602 -3.71918 -0.156608 18.3023 -0.562417 2.14003 8.68661 -5.83414 
90.8693 83.3148 -93.1817 4.11327 8.08532 4.49663 -1.5465 -0.218688 -0.456846 -0.469267 -0.361957 -0.0831135 2.29964e-013 13.125 1.03112e-013 -1.72964e-010 -26.25 -2.87838e-010 -0 0 0 -0 0 0 1.2868e-013 -2.88556e-013 3.8954e-014 -6.5625 3.8732e-009 2.13965e-010 4.88296e-012 -3.62681e-010 -1.87955e-011 6.74817e-010 -1.76031e-009 -2.58579e-010 1.47721e-009 -4.61687e-009 -6.05927e-010 2.55209e-009 -7.97713e-009 -1.04789e-009 1.47721e-009 -4.61687e-009 -6.05937e-010 7.73091 5.47488 0.417314 1.47721e-009 -4.61687e-009 -6.0593e-010 2.90554 0.965183 0.102902 1.47721e-009 -4.61687e-009 -6.05926e-010 10.2786 0.731801 0.0259123 1.4772e-009 -4.61687e-009 -6.05917e-010 2.22167 -0.733487 -0.20892 1.28678e-013 -2.88561e-013 3.87195e-014 6.5625 3.8732e-009 -2.13964e-010 9.13644e-011 -3.20089e-010 2.19061e-011 4.26494e-010 -1.71535e-009 2.9352e-010 1.12183e-009 -4.42703e-009 6.83697e-010 1.93676e-009 -7.64926e-009 1.18054e-009 1.12182e-009 -4.42702e-009 6.8371e-010 -7.73091 5.47488 -0.417314 1.12182e-009 -4.42703e-009 6.837e-010 -2.90554 0.965183 -0.102902 1.12182e-009 -4.42702e-009 6.83701e-010 -10.2786 0.731801 -0.0259123 1.12183e-009 -4.42702e-009 6.83691e-010 -2.22167 -0.733487 0.20892 -2.03217e-016 0 -3.88251e-019 -7.34176 -54.3969 -6.40958 -0.506057 54.7961 1.39157 -1.79999 -7.47715 -6.71078 2.03217e-016 0 3.88251e-019 -2.7032 3.15347 -5.39721 -0.0620266 27.872 -0.920958 3.20978 10.8073 -8.43196 
90.7163 83.5655 -92.4781 4.98915 9.81825 5.48223 -2.15567 -0.2723 -0.549216 -0.645981 -0.450142 -0.1142 2.84964e-013 16 7.96858e-014 -2.52294e-010 -32 -3.7109e-010 -0 0 0 -0 0 0 1.56344e-013 -3.21234e-013 2.55438e-014 -8 4.72161e-009 2.60833e-010 1.18051e-011 -4.01311e-010 -2.80589e-011 8.13043e-010 -1.93895e-009 -3.60319e-010 1.79255e-009 -5.0893e-009 -8.47233e-010 3.09684e-009 -8.79339e-009 -1.46479e-009 1.79255e-009 -5.0893e-009 -8.47242e-010 7.73091 5.47488 0.417314 1.79255e-009 -5.0893e-009 -8.47236e-010 2.90554 0.965183 0.102902 1.79255e-009 -5.0893e-009 -8.47231e-010 10.2786 0.731801 0.0259123 1.79254e-009 -5.0893e-009 -8.47223e-010 2.22167 -0.733487 -0.20892 1.56354e-013 -3.21238e-013 2.5345e-014 8 4.72161e-009 -2.60833e-010 1.06529e-010 -3.54112e-010 1.67838e-011 5.32709e-010 -1.90618e-009 2.47752e-010 1.385e-009 -4.9159e-009 5.73145e-010 2.3912e-009 -8.49391e-009 9.89563e-010 1.385e-009 -4.9159e-009 5.73158e-010 -7.73091 5.47488 -0.417314 1.385e-009 -4.9159e-009 5.73149e-010 -2.90554 0.965183 -0.102902 1.385e-009 -4.9159e-009 5.73149e-010 -10.2786 0.731801 -0.0259123 1.38501e-009 -4.9159e-009 5.73139e-010 -2.22167 -0.733487 0.20892 -2.03217e-016 0 -3.88251e-019 -12.3185 -64.6158 -10.5001 -1.38344 65.732 2.38306 -2.40601 -9.50756 -8.28709 2.03217e-016 0 3.88251e-019 -3.23996 3.95333 -6.4302 0.102153 35.3776 -1.24234 4.02604 12.3429 -10.0226 
